<?xml version="1.0" encoding="UTF-8"?>
<svg id="LOGO" xmlns="http://www.w3.org/2000/svg" viewBox="0 0 1080 248.38">
  <defs>
    <style>
      .cls-1 {
        fill: #042648;
      }
    </style>
  </defs>
  <path class="cls-1" d="M769.32,244.47l-.43-158.3-78.57,112.92-79.27-112.82-.54,158.27-51.96-.03-.05-241.15,55.97.02,75.88,111.52L765.64,3.42l55.78-.13.07,241.15-52.18.03ZM237.81,86.23c-9.42-32.74-32.02-58.27-62.9-71.99-15.46-6.28-30.83-10.65-47.93-10.69L0,3.29v147.55c-1.26,4.73-.96,8.79.01,13.42l.03,80.3,125.74-.32c19.64-.05,37.64-4.66,55.58-13.33,54.55-26.4,72.21-89.87,56.44-144.68ZM122.86,199.7l-70.58.37-.03-152.13,69.93.42c30.93.18,56.07,21.35,64.15,50.66,4.15,16.4,4.59,32.3.24,49.43-7.56,30.09-32.96,50.02-63.72,51.26ZM528.33,129.23C530.41,56.74,477.94,3.96,406.42.26c-26.14-1.35-51.01,2.57-74.16,14-42.19,20.84-67.39,62.19-67.9,109.01-.53,48.29,25.91,91.68,70.25,111.56,34.34,15.39,76.64,17.26,112.82,4.79,48.51-16.72,79.45-59.79,80.9-110.38ZM364.82,196.05c-30.35-12.04-47.71-41.64-46.82-73.92s20.76-61.52,52.55-71.98c21.16-6.96,44.37-5.5,64.22,5.13,27.55,14.76,42.19,44.13,39.96,75.23-2.07,28.95-18.78,54.56-46.46,65.61-20.88,8.33-43.26,7.94-63.45-.07ZM1028.12,3.41l-.25,146.11c-1.41,22.78-13.65,41.38-35,48.67-16.86,5.75-35.25,5.26-51.57-2.04-19.18-8.58-29.15-26.65-30.75-47.8l-.2-144.94-51.91-.11-.06,146.27c1.62,39.47,20.39,72.96,57.26,88.09,31.12,12.77,67.11,13.5,99.24,3.14,23.68-7.63,42.72-23.2,53.86-44.9,7.41-14.45,9.84-29.35,11.25-45.58V3.35s-51.87.05-51.87.05Z"/>
</svg>